<?xml version="1.0" encoding="UTF-8"?>
<svg width="114px" height="123px" viewBox="0 0 114 123" version="1.1" xmlns="http://www.w3.org/2000/svg" xmlns:xlink="http://www.w3.org/1999/xlink">
    <!-- Generator: Sketch 3.8.1 (29687) - http://www.bohemiancoding.com/sketch -->
    <title>logo</title>
    <desc>Created with Sketch.</desc>
    <defs></defs>
    <g id="Page-1" stroke="none" stroke-width="1" fill="none" fill-rule="evenodd" opacity="0.8">
        <g id="logo" fill="#00EDFF">
            <g id="Page-1">
                <g id="logo">
                    <g id="Group">
                        <g id="Shape">
                            <g id="Group" transform="translate(15.122449, 22.433962)">
                                <g id="Shape">
                                    <path d="M90.8510204,1.46981132 C90.0755102,0.193396226 88.4469388,-0.193396226 87.1673469,0.541509434 L1.39591837,51.7915094 C0.116326531,52.5650943 -0.271428571,54.1896226 0.465306122,55.4660377 C1.24081633,56.7424528 2.86938776,57.1292453 4.14897959,56.3943396 L89.9591837,5.14433962 C91.2,4.37075472 91.6265306,2.74622642 90.8510204,1.46981132 L90.8510204,1.46981132 Z"></path>
                                </g>
                            </g>
                            <g id="Group" transform="translate(7.367347, 43.707547)">
                                <g id="Shape">
                                    <path d="M91.044898,1.6245283 C90.2693878,0.348113208 88.6408163,-0.0386792453 87.3612245,0.696226415 L1.55102041,51.9849057 C0.271428571,52.7584906 -0.116326531,54.3830189 0.620408163,55.659434 C1.39591837,56.9358491 3.0244898,57.3226415 4.30408163,56.5877358 L90.1142857,5.33773585 C91.3938776,4.5254717 91.7816327,2.9009434 91.044898,1.6245283 L91.044898,1.6245283 Z"></path>
                                </g>
                            </g>
                            <g id="Group" transform="translate(0.000000, 34.424528)">
                                <g id="Shape">
                                    <path d="M0.697959184,1.6245283 C-0.0775510204,2.9009434 0.348979592,4.5254717 1.58979592,5.2990566 L87.0897959,57.0132075 C88.3693878,57.7867925 89.9979592,57.3613208 90.7734694,56.1235849 C91.5489796,54.8471698 91.122449,53.2226415 89.8816327,52.4490566 L4.34285714,0.696226415 C3.10204082,-0.0386792453 1.43469388,0.348113208 0.697959184,1.6245283 L0.697959184,1.6245283 Z"></path>
                                </g>
                            </g>
                            <g id="Group" transform="translate(22.489796, 31.330189)">
                                <g transform="translate(0.000000, 0.000000)" id="Shape">
                                    <path d="M0.736734694,1.39245283 C-0.0387755102,2.66886792 0.387755102,4.29339623 1.62857143,5.06698113 L87.1285714,56.7811321 C88.4081633,57.554717 90.0367347,57.1292453 90.8122449,55.8915094 C91.5877551,54.6150943 91.1612245,52.990566 89.9204082,52.2169811 L4.42040816,0.502830189 C3.14081633,-0.270754717 1.5122449,0.116037736 0.736734694,1.39245283 L0.736734694,1.39245283 Z"></path>
                                </g>
                            </g>
                            <g id="Group" transform="translate(46.918367, 0.000000)">
                                <g id="Shape">
                                    <path d="M2.83061224,0.309433962 C1.35714286,0.309433962 0.155102041,1.50849057 0.155102041,2.97830189 L0.155102041,102.732075 C0.155102041,104.201887 1.35714286,105.400943 2.83061224,105.400943 C4.30408163,105.400943 5.50612245,104.201887 5.50612245,102.732075 L5.50612245,2.97830189 C5.50612245,1.50849057 4.30408163,0.309433962 2.83061224,0.309433962 L2.83061224,0.309433962 Z"></path>
                                </g>
                            </g>
                            <g id="Group" transform="translate(61.265306, 17.792453)">
                                <g transform="translate(0.000000, 0.000000)" id="Shape">
                                    <path d="M2.98571429,0.0386792453 C1.5122449,0.0386792453 0.310204082,1.23773585 0.310204082,2.70754717 L0.310204082,102.461321 C0.310204082,103.931132 1.5122449,105.130189 2.98571429,105.130189 C4.45918367,105.130189 5.66122449,103.931132 5.66122449,102.461321 L5.66122449,2.70754717 C5.66122449,1.23773585 4.49795918,0.0386792453 2.98571429,0.0386792453 L2.98571429,0.0386792453 Z"></path>
                                </g>
                            </g>
                        </g>
                    </g>
                </g>
            </g>
        </g>
    </g>
</svg>